<?xml version="1.0" standalone="no"?>
<!DOCTYPE svg PUBLIC "-//W3C//DTD SVG 20010904//EN"
 "http://www.w3.org/TR/2001/REC-SVG-20010904/DTD/svg10.dtd">
<svg version="1.0" xmlns="http://www.w3.org/2000/svg"
 width="512.000000pt" height="512.000000pt" viewBox="0 0 512.000000 512.000000"
 preserveAspectRatio="xMidYMid meet">
<metadata>
Created by potrace 1.11, written by Peter Selinger 2001-2013
</metadata>
<g transform="translate(0.000000,512.000000) scale(0.100000,-0.100000)"
fill="#000000" stroke="none">
<path d="M3732 5106 c-54 -18 -112 -57 -140 -95 -31 -42 -59 -135 -66 -221 -4
-41 -9 -88 -12 -105 -2 -16 -6 -50 -8 -75 -3 -25 -8 -65 -11 -90 -3 -25 -8
-67 -10 -95 -3 -27 -8 -66 -10 -85 -2 -19 -7 -62 -10 -95 -3 -33 -8 -71 -10
-85 -2 -14 -6 -54 -9 -90 -4 -36 -8 -76 -10 -90 -3 -14 -7 -56 -11 -93 -3 -37
-8 -76 -10 -85 -1 -9 -6 -46 -9 -82 -4 -36 -8 -78 -10 -95 -2 -16 -7 -59 -11
-95 -4 -36 -8 -76 -10 -90 -2 -14 -6 -51 -9 -83 -3 -33 -13 -117 -22 -189 -19
-160 -20 -203 -5 -298 6 -41 13 -95 16 -120 3 -25 8 -56 10 -70 2 -14 7 -50
10 -80 4 -30 9 -58 13 -62 4 -3 30 -9 57 -12 28 -3 64 -8 80 -10 17 -3 54 -7
84 -11 30 -3 73 -14 95 -24 65 -30 76 -43 257 -291 30 -41 76 -104 103 -139
l47 -65 -5 45 c-3 24 -8 73 -11 109 -3 36 -8 81 -10 100 -5 40 -11 87 -20 180
-4 36 -8 76 -10 90 -2 14 -7 63 -10 110 -4 47 -9 94 -11 105 -5 22 -5 300 0
385 2 30 6 127 10 215 4 88 9 201 12 250 2 50 6 137 9 195 11 262 16 380 20
450 2 41 7 140 10 220 4 80 8 172 10 205 7 118 7 241 -1 270 -19 79 -80 152
-153 182 -51 21 -167 26 -219 9z"/>
<path d="M1070 4556 c-78 -23 -96 -33 -137 -80 -70 -79 -82 -169 -49 -356 7
-37 39 -215 57 -315 6 -33 15 -80 20 -105 4 -25 11 -65 14 -90 4 -25 10 -63
15 -85 5 -22 18 -94 29 -160 12 -66 24 -133 27 -150 3 -16 7 -39 9 -50 1 -11
15 -90 30 -175 14 -85 28 -166 30 -180 2 -14 6 -35 9 -46 2 -12 7 -37 10 -55
3 -19 8 -45 10 -59 7 -37 45 -270 51 -310 16 -105 24 -187 30 -295 3 -66 8
-138 10 -160 2 -22 7 -69 10 -105 11 -130 16 -186 20 -210 2 -14 7 -45 10 -70
22 -172 60 -345 111 -509 87 -279 204 -458 433 -659 138 -122 413 -253 624
-297 191 -40 489 -42 680 -4 29 6 63 12 77 15 316 58 602 306 803 695 108 210
212 486 233 614 17 107 20 136 18 187 -2 51 -7 65 -50 127 -42 60 -391 525
-472 630 -32 41 -74 81 -84 81 -5 0 -52 6 -106 14 -53 8 -117 17 -142 21 -25
3 -58 8 -75 12 -16 3 -43 7 -60 9 -16 2 -46 6 -65 8 -138 19 -271 37 -310 42
-25 3 -56 7 -69 9 -40 7 -214 19 -250 17 -51 -2 -58 -7 -75 -59 -39 -117 -15
-247 63 -343 84 -104 135 -144 251 -202 171 -84 292 -121 411 -127 46 -2 73
-33 71 -79 -2 -22 6 -67 17 -100 11 -32 18 -68 14 -80 -3 -14 -31 -34 -82 -60
-110 -56 -118 -61 -207 -129 -84 -64 -160 -154 -194 -228 -20 -44 -35 -55 -75
-55 -48 0 -60 44 -30 111 61 139 216 287 398 380 39 20 57 35 53 44 -2 7 -8
30 -12 49 -5 31 -10 36 -35 37 -16 1 -32 2 -36 3 -5 1 -34 8 -67 15 -81 18
-169 47 -244 82 -35 16 -65 29 -68 29 -2 0 -4 -11 -4 -25 0 -47 -49 -148 -98
-202 -125 -138 -373 -174 -537 -77 -120 70 -183 181 -200 351 -3 29 -14 124
-25 210 -11 87 -23 178 -26 203 -3 25 -9 77 -15 115 -5 39 -12 88 -14 110 -4
50 -34 273 -39 300 -2 11 -16 76 -31 145 -14 69 -42 202 -61 295 -19 94 -39
186 -44 205 -5 19 -12 53 -15 75 -4 22 -8 48 -11 57 -3 9 -6 25 -8 35 -2 10
-21 97 -41 193 -20 96 -52 247 -70 335 -48 230 -78 302 -159 378 -62 58 -167
80 -256 53z"/>
<path d="M2840 3316 c-105 -19 -175 -67 -215 -151 -34 -69 -37 -141 -14 -315
10 -74 21 -153 24 -174 3 -22 6 -40 7 -41 2 -2 35 -6 73 -9 93 -9 155 -16 185
-21 14 -2 50 -7 80 -10 30 -3 62 -8 70 -10 8 -2 40 -7 70 -10 30 -3 72 -10 93
-14 41 -10 50 -3 43 31 -3 13 -8 46 -11 73 -3 28 -12 97 -20 155 -8 58 -16
123 -19 145 -14 127 -20 155 -43 203 -15 31 -43 67 -67 85 -58 46 -80 56 -171
71 -11 1 -49 -2 -85 -8z"/>
<path d="M2110 3063 c-144 -37 -224 -153 -215 -313 3 -41 6 -84 9 -95 2 -11 7
-47 10 -80 4 -33 9 -73 12 -90 2 -16 17 -140 34 -275 17 -135 32 -258 35 -275
2 -16 7 -52 10 -80 15 -123 43 -182 110 -233 62 -48 124 -64 213 -59 160 11
264 108 277 259 6 62 6 63 -27 87 -45 33 -116 119 -156 189 -79 140 -87 304
-21 434 27 54 48 75 82 83 22 6 27 13 27 39 -1 79 -28 225 -49 269 -57 117
-206 177 -351 140z"/>
</g>
</svg>
